<?xml version="1.0" encoding="UTF-8"?>
<svg width="177px" height="30px" viewBox="0 0 177 30" version="1.1" xmlns="http://www.w3.org/2000/svg" xmlns:xlink="http://www.w3.org/1999/xlink">
    <!-- Generator: Sketch 47.1 (45422) - http://www.bohemiancoding.com/sketch -->
    <title>logo</title>
    <desc>Created with Sketch.</desc>
    <defs></defs>
    <g id="Welcome" stroke="none" stroke-width="1" fill="none" fill-rule="evenodd">
        <g id="Mobile-" transform="translate(-16.000000, -31.000000)" fill="#FFFFFF">
            <g id="1">
                <g id="menu">
                    <g id="logo" transform="translate(16.000000, 31.000000)">
                        <path d="M23.0594322,10.7997471 C23.0594322,13.8044561 23.0977632,16.8098863 23.0462333,19.8136938 C23.0106144,21.891117 22.4119636,23.8340359 21.2611295,25.5815091 C19.7732718,27.8410358 17.6204073,29.1658844 15.0101021,29.6593671 C12.5431765,30.1256244 10.038824,30.1389666 7.576057,29.538746 C3.42455613,28.5268992 0.925989403,25.4509715 0.199689198,21.4542487 C0.0375056573,20.5617609 0.00224836583,19.6672897 0.00206755921,18.767049 C0.000621106224,13.0580117 0.000801912847,7.34897445 0.0004402996,1.63993718 C0.0004402996,1.5497869 -0.00100615338,1.45945631 0.00134433272,1.36948633 C0.0215946745,0.597439282 0.0217754811,0.585539445 0.835224478,0.581572832 C2.52269269,0.573279006 4.2101609,0.579048624 5.89762912,0.579228925 C5.98803243,0.579228925 6.07843574,0.584457641 6.16865824,0.582834936 C6.57294185,0.575082011 6.7926219,0.747449357 6.77182914,1.17494201 C6.76152316,1.38463157 6.77182914,1.59540294 6.77182914,1.80581371 C6.77200995,7.45481089 6.77526447,13.1038081 6.76821301,18.7528053 C6.76748978,19.4781544 6.81377628,20.192325 7.01266356,20.8920715 C7.73046585,23.4188037 9.69022884,24.3121931 11.9703812,24.1432514 C15.3077098,23.895879 16.2770141,21.5050935 16.2927443,19.2370926 C16.3321601,13.5282356 16.3025079,7.81883774 16.3115482,2.10980047 C16.3142603,0.467983472 16.0569725,0.581572832 17.8691972,0.579048624 C19.2854555,0.576885017 20.7017138,0.575262312 22.1179721,0.579950127 C23.0668452,0.583015237 23.0738967,0.588063652 23.0749815,1.51480859 C23.0784169,4.60984818 23.0762472,7.70470748 23.0762472,10.7997471 L23.0594322,10.7997471 Z" id="Fill-1"></path>
                        <path d="M37.8152073,0.57826705 C38.8060106,0.578446528 39.7966336,0.574318526 40.7872567,0.579702876 C41.7252483,0.58472827 41.7288532,0.587958881 42.0208491,1.51334929 C43.2227185,5.32421327 44.4159362,9.13758994 45.6239339,12.9464796 C47.2646984,18.1197638 48.915917,23.2898174 50.5633505,28.4609479 C50.5903872,28.5462001 50.6313026,28.6271448 50.6561763,28.7129355 C50.8546254,29.3969275 50.8540847,29.4130805 50.1361714,29.4168496 C48.3349894,29.4263619 46.5338075,29.4229519 44.7324453,29.4190033 C43.8321247,29.4170291 43.8252754,29.41326 43.5747358,28.5361493 C42.2488582,23.8930442 40.926946,19.2486827 39.6030512,14.6048597 C39.1208975,12.9132762 38.6380229,11.2218721 38.1531655,9.5310065 C38.1039588,9.35924571 38.040693,9.19125397 37.978689,9.0234417 C37.9361513,8.90857555 37.873967,8.79173514 37.7268876,8.84360439 C37.6549701,8.86891084 37.5762033,8.94536862 37.5506086,9.01644205 C37.4597654,9.26842966 37.3874875,9.52741693 37.3135873,9.78532733 C35.5241212,16.0324305 33.7348354,22.2797132 31.9466311,28.5271754 C31.6933877,29.4120037 31.6959112,29.4179265 30.8107311,29.4195418 C29.0695705,29.4231313 27.3282297,29.4258235 25.5870691,29.4181059 C24.7316294,29.4141574 24.6883707,29.3626471 24.9463004,28.5460206 C26.1049112,24.8780214 27.2779415,21.2145092 28.4396165,17.5474074 C30.1236396,12.2316173 31.8024356,6.91421204 33.4839352,1.5978836 C33.80459,0.584189835 33.8056714,0.582036095 34.843158,0.578805485 C35.8339613,0.575574874 36.8245843,0.578087571 37.8152073,0.57826705" id="Fill-3"></path>
                        <path d="M79.1122337,17.3151333 C80.9302343,17.351225 80.3874348,17.0078076 81.0678231,18.9106388 C81.5951593,20.3851096 82.0399069,21.8912973 82.5298147,23.3803507 C82.5906138,23.5650013 82.6025628,23.8612079 82.8436508,23.8500888 C83.0100578,23.8422507 83.0323743,23.5657304 83.0870232,23.4014953 C83.6672511,21.6563372 84.2346514,19.9068043 84.8132979,18.1610994 C85.0937472,17.3149511 85.1013032,17.3158625 85.9893927,17.31167 C86.6037103,17.3091181 87.2182036,17.3231537 87.8323455,17.3083889 C88.2387862,17.2985458 88.4775899,17.3880457 88.5078137,17.8964274 C88.5816162,19.1348444 88.7195565,20.3690689 88.8220013,21.6058453 C88.991747,23.6572355 89.1576268,25.7089902 89.3166535,27.7612918 C89.3632193,28.3657355 89.3632193,28.9741894 89.4185712,29.5775394 C89.4496736,29.9165821 89.3198165,29.9995199 89.0270667,29.9949629 C88.2958952,29.9836615 87.5636694,29.9692613 86.8335523,29.9989731 C86.3872231,30.0170189 86.3079733,29.7964589 86.2853054,29.398175 C86.1856721,27.6444497 86.0619651,25.8920003 85.9379067,24.1397332 C85.9271878,23.9866172 86.0248882,23.7299656 85.7679854,23.7152008 C85.6265306,23.7071805 85.5627442,23.9044085 85.5131912,24.0467699 C85.1260797,25.1566788 84.7213962,26.2605724 84.3624,27.3803245 C84.2205938,27.8232673 84.0123655,28.0290625 83.5475857,27.9947937 C83.0525821,27.9583375 82.5519554,27.9618008 82.0566004,27.9940646 C81.634872,28.0214067 81.4261165,27.8542551 81.2925692,27.4386544 C80.9694199,26.4339217 80.6026919,25.4445005 80.2533603,24.4488818 C80.1934397,24.2784491 80.1440624,24.1025479 80.0681513,23.9401356 C80.0207069,23.8386051 79.969748,23.6873118 79.8337406,23.707545 C79.6933402,23.7285073 79.6975575,23.8830816 79.7026534,23.9946376 C79.7399061,24.8180008 79.5235946,25.623865 79.5351921,26.4415775 C79.549074,27.4466748 79.3494559,28.4337263 79.3448872,29.4346312 C79.3433057,29.7897145 79.2638802,30.0075403 78.8563852,29.9964211 C78.0963956,29.9756411 77.3353517,29.9836615 76.574835,29.9938692 C76.2372766,29.998244 76.1272758,29.8872348 76.1590811,29.5086372 C76.3947218,26.7029684 76.6004901,23.8947476 76.827872,21.0883496 C76.9159078,20.0023195 77.0487522,18.9202996 77.1343279,17.8340873 C77.1650789,17.4429123 77.3365818,17.3038319 77.6897792,17.3125814 C78.0990314,17.3227891 78.5088108,17.3151333 79.1122337,17.3151333" id="Fill-5"></path>
                        <path d="M104.369,23.0318478 C104.448252,26.5012548 101.734604,29.4370561 97.7794639,29.4231298 C93.9631968,29.4093798 91.2051963,26.6711907 91.1877463,23.0017035 C91.1710234,19.4640753 94.0035498,16.8053894 97.7640134,16.7914631 C101.601002,16.7773606 104.37209,19.3953253 104.369,23.0318478 Z M100.813963,23.0725484 C100.815386,21.3978362 99.5392287,20.192196 97.7721965,20.1986906 C96.0404062,20.205104 94.7359548,21.4294973 94.7436562,23.0586662 C94.7516923,24.7485595 96.0218226,26.0095661 97.7793118,26.0158984 C99.6007555,26.0223118 100.850461,24.6702997 100.813963,23.0725484 Z" id="Fill-7"></path>
                        <path d="M106.162969,23.6782733 C106.162969,21.8263173 106.158385,19.9741789 106.165261,18.1220406 C106.168082,17.3240729 106.178837,17.3091201 106.951597,17.3078437 C108.419011,17.3056555 109.886602,17.3279023 111.354193,17.3286317 C111.831988,17.328814 112.286864,17.4411422 112.727282,17.6034345 C114.871897,18.392467 115.565318,20.8394341 114.172306,22.7065252 C113.932879,23.0274628 113.639149,23.2375311 114.16684,23.6146328 C116.03183,24.9485298 115.69226,28.2011233 113.575149,29.3130992 C112.715646,29.7647825 111.794787,29.9349159 110.862469,29.9743037 C109.514415,30.0315619 108.161953,29.9710214 106.812137,29.9994681 C106.315476,30.0098621 106.138639,29.8406405 106.154859,29.3254991 C106.184479,28.3851154 106.162969,27.4430905 106.162969,26.5019774 C106.162793,25.5606819 106.162793,24.6195688 106.162969,23.6782733 Z M110.057582,21.9197295 C110.256096,21.9051517 110.486739,21.9184619 110.699288,21.8661721 C111.051507,21.7793393 111.272849,21.5472042 111.327635,21.2027253 C111.379885,20.8732995 111.336766,20.5468843 110.999089,20.3727434 C110.453766,20.0914876 109.860589,20.2065252 109.282293,20.2721252 C109.222265,20.2789387 109.136874,20.3717927 109.125883,20.4345405 C109.049453,20.8740918 108.95307,21.3391542 109.178809,21.7430533 C109.346041,22.0422144 109.741041,21.8650629 110.057582,21.9197295 Z M110.330405,24.8091384 C110.053714,24.8091384 109.880673,24.8133761 109.708154,24.8082908 C109.330421,24.7969335 109.052686,24.9462731 109.10799,25.3371666 C109.187988,25.9043519 108.722083,26.6725779 109.47894,26.9907509 C109.977715,27.2002671 110.612835,27.1197491 111.176478,26.9398974 C111.686557,26.7771664 111.894554,26.3957656 111.92151,25.9155397 C111.94777,25.4504002 111.641862,25.0813738 111.165174,24.8993184 C110.857701,24.781847 110.541184,24.8179529 110.330405,24.8091384 Z" id="Fill-10"></path>
                        <path d="M155.193973,6.89313891 C155.193973,5.04196204 155.188922,3.19060301 155.196412,1.33942614 C155.199372,0.599902564 155.211912,0.595713144 155.929302,0.58678786 C156.480538,0.579866211 157.031947,0.581505549 157.583357,0.586241414 C158.350558,0.592980914 158.357177,0.595713144 158.361357,1.37112001 C158.367627,2.5243032 158.355435,3.67766854 158.366407,4.83085173 C158.373374,5.57201465 158.412561,5.61882685 159.097905,5.6328523 C159.968038,5.65070287 160.839042,5.64960998 161.70935,5.6335809 C162.429875,5.62046619 162.471326,5.56946457 162.477596,4.77329276 C162.486479,3.62010956 162.474113,2.46692637 162.482647,1.31374318 C162.487872,0.605367024 162.4978,0.598081077 163.142388,0.587698603 C163.751621,0.577862575 164.362247,0.608827848 164.970086,0.57859117 C165.435632,0.555640438 165.596039,0.76948297 165.575139,1.22230455 C165.561206,1.52503563 165.574094,1.8292239 165.574094,2.13268357 C165.574268,5.50134097 165.57601,8.86999836 165.572875,12.2388379 C165.57183,13.2521309 165.565386,13.2535881 164.616007,13.2612384 C164.15168,13.2648813 163.687354,13.2696172 163.223201,13.2597812 C162.498845,13.2444807 162.489091,13.2393805 162.482821,12.5016784 C162.473242,11.4091507 162.488569,10.3164409 162.476377,9.22409536 C162.468017,8.482386 162.454955,8.47182138 161.731295,8.46198535 C160.860813,8.45032784 159.989983,8.45105643 159.119676,8.46162106 C158.378773,8.47054634 158.37111,8.47983592 158.365188,9.30041565 C158.357177,10.3929433 158.343766,11.4860175 158.370762,12.5778166 C158.383476,13.0889257 158.212445,13.2907464 157.722167,13.2674314 C157.142717,13.239927 156.561525,13.2685243 155.981204,13.2599633 C155.210519,13.2486701 155.199198,13.2432056 155.196237,12.4470338 C155.189097,10.5956748 155.193973,8.74449793 155.193973,6.89313891" id="Fill-12"></path>
                        <path d="M163.845053,23.7088323 C163.845053,25.5291325 163.848373,27.3494327 163.843481,29.1697329 C163.841384,29.978006 163.83387,29.9820155 163.094755,29.9894877 C162.513073,29.9955019 161.929993,29.9652486 161.350059,29.9978711 C160.876361,30.0244794 160.743041,29.8012248 160.748632,29.3525284 C160.761912,28.2604941 160.757194,27.1680952 160.749506,26.0758786 C160.742691,25.0868148 160.736052,25.0838989 159.75703,25.0800716 C158.94243,25.0771557 158.128006,25.0705947 157.313756,25.0829876 C156.622168,25.093558 156.573767,25.1356575 156.562409,25.8688441 C156.545286,26.9909495 156.565205,28.1137838 156.553148,29.2360715 C156.545111,29.9747255 156.532006,29.9803753 155.807918,29.9889409 C155.16805,29.9964131 154.528008,29.9834735 153.888315,29.9903989 C153.597736,29.9934972 153.456378,29.8662876 153.465464,29.559563 C153.469832,29.407932 153.462319,29.2559366 153.462319,29.1043056 C153.461969,25.494323 153.460571,21.8839758 153.462668,18.2738109 C153.463192,17.3219258 153.467735,17.3199211 154.362362,17.3131779 C154.857028,17.3093506 155.351693,17.3016962 155.845834,17.3160939 C156.510863,17.3354122 156.541616,17.3570998 156.551401,18.0412615 C156.567127,19.1332959 156.549829,20.2256947 156.559089,21.317729 C156.566952,22.2563099 156.581979,22.2674271 157.50666,22.2725301 C158.35009,22.2772685 159.193869,22.2847407 160.037125,22.2688851 C160.660742,22.2570389 160.733256,22.1883312 160.744963,21.5262216 C160.763834,20.4345517 160.74671,19.3421529 160.75335,18.2499363 C160.758767,17.32794 160.764009,17.3252063 161.610759,17.3135424 C162.076069,17.3073459 162.541555,17.3078927 163.00669,17.3135424 C163.837889,17.3239305 163.842432,17.326482 163.844005,18.2481138 C163.847325,20.0682318 163.845053,21.8887143 163.845053,23.7088323" id="Fill-14"></path>
                        <path d="M140.193963,23.6011601 C140.194138,21.8117646 140.188884,20.0220046 140.19624,18.2326091 C140.199918,17.3339932 140.214279,17.3268859 141.084024,17.3164983 C141.608743,17.31012 142.134513,17.336909 142.657831,17.3099378 C143.13964,17.2851534 143.334396,17.4626533 143.32091,17.9862232 C143.292362,19.1078985 143.307599,20.2306672 143.31443,21.3528891 C143.320034,22.2609814 143.326164,22.2660841 144.191355,22.274467 C144.949185,22.2817565 145.707191,22.279023 146.465196,22.2755604 C147.444053,22.2708223 147.447731,22.2686354 147.451759,21.28619 C147.456488,20.1942196 147.470849,19.1018846 147.445454,18.0104609 C147.433894,17.5138622 147.579085,17.2853356 148.084539,17.3095733 C148.695427,17.3387314 149.309117,17.3347221 149.920355,17.3115779 C150.421956,17.2928074 150.585186,17.5366419 150.576604,18.0255866 C150.560141,18.9655706 150.573452,19.9061012 150.573452,20.8462673 C150.573627,23.5761935 150.576079,26.3061196 150.57205,29.0358636 C150.570649,29.9867818 150.563118,29.9882397 149.658346,29.9922489 C149.104554,29.9948002 148.549886,29.9718382 147.997144,29.998445 C147.571379,30.0190379 147.441075,29.8357064 147.447731,29.4121851 C147.46577,28.2597116 147.45929,27.1068737 147.450883,25.9544002 C147.444403,25.1015261 147.434595,25.0929609 146.619844,25.0840312 C145.803693,25.0751015 144.987366,25.0760127 144.171214,25.0836667 C143.324413,25.0916852 143.319334,25.0973346 143.31408,26.0196414 C143.308125,27.1116119 143.319509,28.2035823 143.309876,29.2953705 C143.303746,29.9753008 143.292713,29.9804034 142.618599,29.9909732 C142.094055,29.9991739 141.569336,29.9962581 141.044442,29.9918844 C140.204822,29.9851416 140.197816,29.9829548 140.195364,29.0610124 C140.190285,27.2411831 140.193788,25.4211716 140.193963,23.6011601" id="Fill-16"></path>
                        <path d="M112.50176,6.90229312 C112.501937,5.05126323 112.496098,3.20005102 112.504769,1.34902113 C112.508131,0.595701377 112.522464,0.582392485 113.238248,0.58111629 C116.213222,0.575464568 119.188018,0.575646882 122.162991,0.580933976 C122.867628,0.582210171 122.880015,0.595154436 122.881076,1.35248509 C122.885677,5.05454487 122.886031,8.75678696 122.880722,12.4590291 C122.879484,13.2471707 122.865858,13.2504524 122.079999,13.2650374 C121.667693,13.2726946 121.255387,13.2677721 120.842905,13.2664959 C119.765777,13.2632143 119.762592,13.2628497 119.761707,12.1888403 C119.759938,9.73070617 119.757991,7.27275433 119.762238,4.8148025 C119.76507,3.26531929 119.797452,3.40442456 118.350135,3.40168986 C117.76105,3.40059597 117.171966,3.39676739 116.582705,3.40278374 C115.657051,3.41189942 115.6298,3.43341242 115.627853,4.36503487 C115.622899,6.94440756 115.630154,9.52378024 115.624314,12.1031529 C115.621483,13.2971246 115.78322,13.2666783 114.462956,13.2666783 C114.109577,13.2666783 113.75602,13.2697776 113.40264,13.2654021 C112.515563,13.2544633 112.506538,13.2531871 112.503707,12.3645906 C112.497336,10.5438248 112.50176,8.72305895 112.50176,6.90229312" id="Fill-18"></path>
                        <path d="M175.959223,23.694753 C175.959579,25.5142197 175.96491,27.3336865 175.957091,29.1533353 C175.953714,29.9525829 175.941274,29.9558593 175.167324,29.9644142 C174.604856,29.9706028 174.040788,29.9396595 173.480274,29.9733331 C172.991735,30.0028203 172.788785,29.8442813 172.807089,29.3149686 C172.839256,28.3759301 172.82184,27.4348894 172.810111,26.4949407 C172.807089,26.2402955 172.894881,25.9082919 172.536962,25.8130957 C172.162339,25.713167 171.85347,25.796532 171.644299,26.18933 C171.091783,27.226295 170.487729,28.2355931 169.963291,29.2869376 C169.693875,29.8266254 169.353195,30.0286671 168.771889,29.9771555 C168.184007,29.925098 167.588128,29.9782477 166.996337,29.9600457 C166.71608,29.9514908 166.334526,30.1149443 166.181868,29.8364545 C166.060844,29.6151188 166.363138,29.3595634 166.493048,29.131311 C167.133711,28.0062485 167.769042,26.8766356 168.447026,25.7750537 C168.731192,25.3132702 168.748431,25.0502521 168.298811,24.6425284 C166.888108,23.3627494 166.510286,21.0137879 167.388377,19.305353 C167.997229,18.1213163 168.968087,17.409256 170.287444,17.3593827 C171.943394,17.29695 173.602542,17.3078712 175.260269,17.3093273 C175.916216,17.3098734 175.950693,17.3519199 175.955136,18.0541511 C175.966687,19.9342304 175.959045,21.8144917 175.959223,23.694753 Z M173.05169,21.5586215 C173.051495,20.1717154 172.930047,20.0753485 171.396955,20.2663173 C171.239111,20.2859083 171.082629,20.3270319 170.931208,20.3738034 C170.677023,20.4523441 170.490179,20.6062487 170.358415,20.8203384 C170.079706,21.2737568 170.163008,22.1827116 170.52385,22.5702969 C170.893255,22.9672366 172.080102,23.2286273 172.699801,22.9792383 C173.341492,22.7208481 172.946201,22.1548252 173.049744,21.7337056 C173.063562,21.6781093 173.05169,21.6172182 173.05169,21.5586215 Z" id="Fill-20"></path>
                        <path d="M141.344423,6.91821064 C141.344423,8.75012202 141.349826,10.5820334 141.341541,12.4139448 C141.338479,13.1020611 141.323889,13.1119789 140.634398,13.1273065 C140.004707,13.1411914 139.374295,13.1422734 138.744603,13.1271262 C138.072043,13.1112576 138.058174,13.1000776 138.056373,12.3953714 C138.049889,9.84270506 138.053852,7.2900387 138.053491,4.73737235 C138.053491,3.31984549 138.053311,3.31984549 136.680994,3.39125379 C135.982137,3.42767923 135.943772,3.45094103 135.944313,4.20072816 C135.945213,5.91362571 135.831559,7.61426123 135.408282,9.2799139 C135.138646,10.3405796 134.696637,11.3190175 133.883585,12.0871977 C133.062429,12.8633122 132.073943,13.2252224 130.95361,13.2683198 C130.569599,13.2831064 130.399748,13.1182903 130.40209,12.7437574 C130.404251,12.38347 130.410195,12.0224614 130.394525,11.6628954 C130.362464,10.9280751 130.351837,10.3501368 131.300157,10.0096851 C132.282519,9.65697135 132.449848,8.55807698 132.63555,7.60542535 C132.936887,6.05896685 132.792792,4.49375464 132.822512,2.93611604 C132.833859,2.33563717 132.83494,1.73461732 132.821791,1.13431877 C132.814046,0.780162459 132.896,0.574953762 133.314594,0.576937326 C135.834261,0.588658385 138.353928,0.589560005 140.873775,0.577297974 C141.394856,0.574773438 141.344603,0.909454757 141.344603,1.24233284 C141.344242,3.1342921 141.344423,5.02625137 141.344423,6.91821064" id="Fill-22"></path>
                        <path d="M127.498515,23.6997742 C127.498515,25.5430194 127.503163,27.3864462 127.496012,29.2295098 C127.493509,29.9221793 127.481172,29.928534 126.809466,29.9388832 C126.21428,29.9479615 125.619094,29.9450564 125.024088,29.9399726 C124.243678,29.9332547 124.234917,29.9301681 124.233308,29.1523448 C124.228838,26.8255927 124.231699,24.4988406 124.231699,22.1720885 C124.231699,21.9304258 124.25065,21.686766 124.227408,21.4474636 C124.187538,21.0378536 124.433014,20.472461 124.072577,20.2520414 C123.596107,19.9608116 122.973925,20.1356584 122.414854,20.1661613 C122.125396,20.1819574 122.133621,20.4419581 122.14113,20.6473078 C122.17939,21.6769615 122.039936,22.6957212 121.975929,23.7193832 C121.900123,24.9349591 121.660547,26.1144036 121.16745,27.2188619 C120.405812,28.9253889 119.128372,29.9154614 117.226781,29.9980733 C116.716699,30.0204058 116.509484,29.8515506 116.551678,29.336633 C116.573847,29.0664647 116.566696,28.7924835 116.553108,28.5212258 C116.513774,27.7257907 116.478732,27.0826884 117.513915,26.7268215 C118.534974,26.3756753 118.678898,25.2113006 118.851429,24.2246778 C119.176287,22.3667259 118.999108,20.4882571 119.03862,18.618685 C119.068656,17.2072008 118.823717,17.3146871 120.327682,17.3112374 C122.440242,17.3065167 124.552802,17.3061536 126.665541,17.3123268 C127.489218,17.3146871 127.495476,17.3252179 127.497442,18.1700386 C127.501554,20.0132838 127.498694,21.8567105 127.498515,23.6997742" id="Fill-24"></path>
                        <path d="M144.23959,6.85452899 C144.239413,5.03624227 144.236406,3.21777332 144.240828,1.3994866 C144.242774,0.593120723 144.249496,0.589293902 144.99528,0.581822489 C145.583806,0.575808913 146.172332,0.574533306 146.760503,0.582551408 C147.459234,0.592027346 147.46401,0.597312003 147.470201,1.35465813 C147.476393,2.11236871 147.466487,2.87007929 147.473032,3.62760764 C147.480461,4.46458809 147.485237,4.46695707 148.325483,4.49028246 C148.795844,4.50340299 149.26815,4.48299327 149.736565,4.51871027 C151.475785,4.65100894 152.69989,5.66074303 153.220666,7.36823417 C153.567201,8.50571119 153.548627,9.6450105 153.107631,10.7391169 C152.491863,12.266383 151.386277,13.1864601 149.743287,13.2369377 C148.126831,13.2868686 146.507545,13.2444091 144.890028,13.2690101 C144.395787,13.2764815 144.224907,13.0951631 144.230922,12.5821868 C144.253211,10.673332 144.239767,8.76374827 144.23959,6.85452899 Z M147.142431,8.3594295 C147.142431,8.46882068 147.140601,8.57837685 147.142797,8.68776803 C147.166406,9.90658049 146.942213,9.78233983 148.432868,9.80725396 C149.033522,9.81731861 149.511923,9.65562425 149.791752,9.16097152 C150.107087,8.60329098 150.058588,8.04462048 149.685055,7.52472363 C149.358191,7.07032949 148.228074,6.78604441 147.518892,6.99047228 C146.823985,7.19077529 147.263953,7.73641124 147.145908,8.11408306 C147.122299,8.1901454 147.142431,8.27742736 147.142431,8.3594295 Z" id="Fill-26"></path>
                        <path d="M130.392345,23.6336399 C130.392167,21.7830521 130.387371,19.9322821 130.394476,18.0818766 C130.397318,17.333914 130.409218,17.3173291 131.134771,17.3142308 C133.263296,17.3054827 135.391999,17.3054827 137.520701,17.314413 C138.243412,17.3175113 138.247498,17.3340963 138.257622,18.0836991 C138.264548,18.5992903 138.242169,19.1157927 138.263305,19.6306549 C138.279823,20.033432 138.108426,20.1566344 137.737213,20.1518959 C136.613805,20.1378625 135.490219,20.140414 134.366811,20.1509846 C133.644988,20.157728 133.644278,20.1690276 133.627049,20.9173547 C133.622609,21.0992423 133.642679,21.2831346 133.624563,21.4630175 C133.570746,21.9968338 133.83166,22.1389905 134.30589,22.12277 C135.044053,22.0972547 135.783993,22.1087366 136.523044,22.1194895 C137.222665,22.1296956 137.234743,22.1406307 137.253925,22.816057 C137.26849,23.3312837 137.246288,23.8476039 137.256412,24.3630128 C137.26476,24.7885714 137.070273,24.9620754 136.665313,24.9575191 C135.926261,24.9489533 135.186855,24.9474952 134.448158,24.9631689 C133.671097,24.9793894 133.645521,25.0151108 133.625983,25.7798406 C133.590816,27.1549326 133.590816,27.1551149 134.970876,27.1562084 C135.887364,27.1567551 136.804207,27.1474603 137.720517,27.1598534 C138.434525,27.1691483 138.4379,27.1809947 138.4498,27.9411681 C138.456904,28.3960694 138.42742,28.8527931 138.45726,29.3058718 C138.489585,29.7981347 138.344652,30.0055376 137.820336,29.9998878 C135.544036,29.9752838 133.267381,29.9787466 130.990903,29.997883 C130.523779,30.0017103 130.380444,29.8338561 130.384707,29.3672908 C130.403179,27.4563776 130.392345,25.5447354 130.392345,23.6336399" id="Fill-28"></path>
                        <path d="M168.47994,6.28290683 C168.479764,4.467013 168.474497,2.65129794 168.482749,0.835404117 C168.485734,0.160566631 168.500308,0.147516793 169.170166,0.145371614 C171.275258,0.138757313 173.380349,0.15287974 175.485266,0.13536078 C175.953552,0.131427952 176.201829,0.253703142 176.175492,0.778020585 C176.150383,1.28267389 176.157758,1.79018743 176.172331,2.29573456 C176.185324,2.75122752 175.989547,2.93607042 175.543033,2.92874106 C174.607515,2.91354605 173.671645,2.92391441 172.736127,2.92731094 C171.609221,2.93124377 171.548468,2.99685049 171.584288,4.14040953 C171.608343,4.90999242 171.637841,4.94735428 172.384254,4.95879523 C173.056746,4.9691636 173.729237,4.95808017 174.401905,4.96219177 C175.233652,4.96737595 175.236813,4.96969989 175.246294,5.77432069 C175.251737,6.25055038 175.234355,6.72713759 175.247523,7.20300975 C175.258234,7.58896316 175.084931,7.72857855 174.719363,7.72357313 C173.900784,7.71231094 173.081679,7.73787432 172.263627,7.71785265 C171.770935,7.70587541 171.605533,7.92951029 171.577967,8.40931528 C171.500182,9.75595125 171.523886,9.79670964 172.871328,9.79706717 C173.865492,9.7974247 174.860007,9.81619502 175.853293,9.78920152 C176.314028,9.77668797 176.479254,9.94633586 176.453619,10.407013 C176.425876,10.9114875 176.421487,11.42061 176.454672,11.9243694 C176.488385,12.4401062 176.273644,12.5965255 175.791487,12.5900899 C174.329739,12.5706046 172.86764,12.5838332 171.405893,12.5840119 C170.645609,12.5840119 169.884798,12.5638115 169.125567,12.5897324 C168.629012,12.6067151 168.466946,12.4048895 168.472214,11.9088169 C168.49188,10.0337519 168.480115,8.1581506 168.47994,6.28290683" id="Fill-30"></path>
                        <path d="M82.692841,12.6917888 C79.8188495,12.7143007 77.7751183,11.9029864 76.5143063,9.75939361 C74.2711692,5.94478054 76.1845334,0.867197279 80.8589163,0.108174361 C82.8936814,-0.222236363 84.6843895,0.209211975 86.3614075,1.33462919 C86.811864,1.63685574 86.8583084,1.90309871 86.5430606,2.33312898 C86.1939209,2.80906932 85.9052127,3.32896988 85.5987517,3.83468973 C85.4407691,4.09508316 85.2799174,4.11582246 85.0245631,3.93856349 C84.3874325,3.49665687 83.7070854,3.15951031 82.9257801,3.00210434 C81.1375825,2.64173685 79.5100573,3.51934602 79.0691048,5.15952329 C78.5591135,7.05654881 79.3642686,9.06418393 81.108891,9.61244593 C82.3983945,10.0176599 83.5772564,9.71525613 84.6619743,8.96598246 C84.9510411,8.76638885 85.2539157,8.38085059 85.5198501,8.40548959 C85.8750867,8.43810524 86.0153163,8.93762102 86.2455656,9.23789772 C86.4435369,9.4963413 86.6277005,9.76542042 86.8131193,10.0330815 C87.2370362,10.6451567 87.2318358,10.6414343 86.6906425,11.0891904 C85.4063393,12.1515034 83.9380519,12.7118191 82.692841,12.6917888" id="Fill-33"></path>
                        <path d="M106.308533,13.1866344 C103.405278,13.1968135 101.401491,12.3479463 100.142201,10.1561602 C98.2710178,6.89938198 99.2643905,2.00267229 103.366402,0.563960485 C105.635219,-0.231829821 107.784746,0.0726354057 109.769183,1.45499842 C110.427586,1.91360485 110.415337,1.96959009 109.99871,2.67903952 C109.740071,3.11965068 109.468296,3.55226396 109.219598,3.99869178 C109.008888,4.37750105 108.806166,4.40712961 108.455396,4.13174763 C107.915574,3.70822287 107.301905,3.42011697 106.622024,3.2712471 C105.125219,2.94387882 103.741669,3.44720074 103.053266,4.60562276 C102.254627,5.94981401 102.369124,7.82531981 103.323444,9.03918177 C104.186521,10.1367107 105.693976,10.5018872 107.107172,9.9620295 C107.695278,9.7375432 108.242734,9.43016965 108.694331,8.99283035 C109.045633,8.65291992 109.223503,8.7759784 109.440426,9.11734299 C109.746107,9.59867071 110.054627,10.0829067 110.409302,10.5260627 C110.731846,10.9290474 110.643621,11.1860706 110.282911,11.4956254 C108.987053,12.607696 107.515988,13.2066291 106.308533,13.1866344" id="Fill-35"></path>
                        <path d="M53.0841238,21.5731223 C53.0950795,18.8271405 55.2420519,16.7143354 58.005062,16.7308656 C60.7569367,16.747216 62.8661924,18.884457 62.8845119,21.6291811 C62.9010354,24.1072666 60.9368987,26.5345039 57.9941062,26.5384568 C54.8323778,26.5425893 52.9449316,23.8576972 53.0841238,21.5731223" id="Fill-38"></path>
                        <path d="M57.9906782,2.88463374 C60.7465975,2.89200015 62.884975,5.02556395 62.8846154,7.76766507 C62.8842557,10.525577 60.6804195,12.709987 57.9164078,12.6921998 C55.2138985,12.674772 53.0667092,10.4765275 53.0769596,7.73748076 C53.0873899,4.98154516 55.2180346,2.877447 57.9906782,2.88463374" id="Fill-40"></path>
                        <path d="M89.4263988,0.109391393 C90.8706221,-0.293603936 91.4901227,0.459590244 91.9443865,1.6676874 C92.3911646,2.85587477 93.0168729,3.98042195 93.568453,5.13110071 C93.630896,5.26140313 93.6803757,5.45943436 93.8322839,5.46618946 C94.048461,5.47578882 94.0838819,5.24415984 94.1377435,5.09323657 C94.6340013,3.69972957 95.1176609,2.30177842 95.6082586,0.906315988 C95.8874264,0.112413413 95.8901651,0.111880115 96.7315027,0.109746924 C97.4605525,0.107969265 98.1897848,0.119168518 98.9186519,0.106191606 C99.2368923,0.100680863 99.2825378,0.236849553 99.1854042,0.483766409 C99.0769505,0.759303576 98.9617413,1.03199649 98.8510966,1.30646706 C97.7879219,3.94433547 96.7274859,6.5830927 95.6602944,9.21936122 C95.393177,9.87905053 95.0714676,10.5106528 94.6823855,11.1161235 C93.3122905,13.2477146 90.5489127,12.9023154 89.0342128,11.9206921 C88.7913788,11.763547 88.8063505,11.6129793 88.9306888,11.4085485 C89.1470485,11.0526611 89.3475234,10.6871744 89.5739251,10.3373311 C89.7658187,10.0401064 89.8423205,9.61293495 90.1671338,9.47178882 C90.4923123,9.33046492 90.7168881,9.76581364 91.0362239,9.83869767 C91.2129632,9.87905053 91.3907981,9.94215743 91.5688155,9.94535721 C92.2292144,9.95673423 92.4956015,9.5636938 92.1987232,8.97653298 C91.515319,7.62497873 90.8109178,6.28355714 90.1083424,4.94124672 C89.364321,3.52000823 88.606971,2.10534708 87.8675141,0.681797638 C87.5848773,0.137656173 87.6003967,0.125568091 88.2416246,0.110991286 C88.6363667,0.10210299 89.0314741,0.109391393 89.4263988,0.109391393" id="Fill-42"></path>
                        <path d="M125.779286,6.83071545 C125.779286,4.96817117 125.794332,3.1056269 125.769435,1.24362363 C125.762629,0.73308308 125.924728,0.555809549 126.431802,0.578892979 C127.205936,0.614239482 127.982937,0.597467927 128.758504,0.585385194 C129.1033,0.580155354 129.237995,0.724066115 129.230472,1.06689112 C129.217397,1.66742099 129.227964,2.26849187 129.228144,2.86920207 C129.228144,6.05327273 129.229756,9.23734339 129.22689,12.4214141 C129.226173,13.2493518 129.219725,13.2518765 128.396513,13.256926 C127.740236,13.2608935 127.082168,13.2300555 126.427861,13.266484 C125.91613,13.2949776 125.763345,13.103818 125.769614,12.5979662 C125.793616,10.6757296 125.779286,8.75313238 125.779286,6.83071545" id="Fill-44"></path>
                    </g>
                </g>
            </g>
        </g>
    </g>
</svg>